<?xml version="1.0" encoding="UTF-8"?>
<svg xmlns="http://www.w3.org/2000/svg" xmlns:xlink="http://www.w3.org/1999/xlink" width="20px" height="27px" viewBox="0 0 20 26" version="1.1">
<g id="surface1">
<path style=" stroke:none;fill-rule:nonzero;fill:rgb(0%,0%,0%);fill-opacity:1;" d="M 17.84375 7.648438 C 18.496094 7.011719 18.496094 5.980469 17.84375 5.347656 C 17.191406 4.710938 16.136719 4.710938 15.484375 5.347656 L 10 10.699219 L 4.511719 5.351562 C 3.859375 4.71875 2.800781 4.71875 2.152344 5.351562 C 1.5 5.988281 1.5 7.019531 2.152344 7.652344 L 7.640625 13 L 2.15625 18.351562 C 1.503906 18.988281 1.503906 20.019531 2.15625 20.652344 C 2.808594 21.289062 3.863281 21.289062 4.515625 20.652344 L 10 15.300781 L 15.488281 20.648438 C 16.140625 21.28125 17.199219 21.28125 17.847656 20.648438 C 18.5 20.011719 18.5 18.980469 17.847656 18.347656 L 12.359375 13 Z M 17.84375 7.648438 "/>
</g>
</svg>
