<?xml version="1.0" encoding="UTF-8"?>
<svg xmlns="http://www.w3.org/2000/svg" xmlns:xlink="http://www.w3.org/1999/xlink" width="50px" height="50px" viewBox="0 0 50 50" version="1.1">
<g id="surface1">
<path style=" stroke:none;fill-rule:nonzero;fill:rgb(0%,0%,0%);fill-opacity:1;" d="M 0 24.996094 L 0 49.996094 L 49.996094 49.996094 L 49.996094 0 L 0 0 Z M 13.574219 9.636719 C 14.101562 9.738281 14.605469 10.253906 14.757812 10.855469 C 14.816406 11.089844 14.808594 11.539062 14.746094 11.808594 C 14.65625 12.15625 14.5 12.453125 14.300781 12.65625 C 14.085938 12.867188 13.839844 12.996094 13.296875 13.175781 C 12.679688 13.378906 12.476562 13.492188 12.210938 13.800781 C 11.925781 14.128906 11.792969 14.445312 11.730469 14.949219 C 11.707031 15.136719 11.679688 15.25 11.65625 15.265625 C 11.585938 15.308594 11.496094 15.289062 11.453125 15.222656 C 11.386719 15.121094 11.414062 14.234375 11.488281 13.882812 C 11.601562 13.382812 11.78125 12.988281 12.050781 12.640625 C 12.257812 12.378906 12.300781 12.332031 12.53125 12.148438 L 12.746094 11.976562 L 12.566406 11.90625 C 12.339844 11.816406 12.195312 11.722656 12.0625 11.589844 C 11.726562 11.238281 11.753906 10.664062 12.125 10.171875 C 12.257812 9.992188 12.378906 9.902344 12.621094 9.785156 C 12.949219 9.628906 13.269531 9.582031 13.574219 9.636719 Z M 8.429688 11.6875 C 8.820312 11.742188 9.300781 11.90625 9.636719 12.101562 C 9.808594 12.203125 10.214844 12.59375 10.339844 12.78125 C 10.480469 12.984375 10.640625 13.324219 10.703125 13.542969 C 11.007812 14.628906 10.4375 15.460938 9.140625 15.808594 L 8.871094 15.878906 L 9.085938 16.027344 C 9.402344 16.246094 9.566406 16.386719 9.867188 16.675781 C 10.347656 17.148438 10.667969 17.589844 10.949219 18.171875 C 11.136719 18.558594 11.226562 18.800781 11.335938 19.21875 C 11.488281 19.808594 11.523438 20.128906 11.542969 20.90625 C 11.5625 21.882812 11.535156 22.039062 11.363281 21.992188 C 11.324219 21.984375 11.28125 21.96875 11.269531 21.957031 C 11.261719 21.949219 11.234375 21.761719 11.207031 21.542969 C 11.128906 20.851562 11.039062 20.515625 10.792969 20.035156 C 10.554688 19.570312 10.136719 19.042969 9.789062 18.789062 C 9.414062 18.507812 9.148438 18.390625 8.25 18.085938 C 7.367188 17.789062 7.117188 17.683594 6.796875 17.480469 C 5.996094 16.960938 5.519531 16.003906 5.46875 14.808594 C 5.449219 14.34375 5.484375 14.070312 5.613281 13.679688 C 5.96875 12.613281 6.84375 11.808594 7.78125 11.6875 C 8.039062 11.65625 8.1875 11.65625 8.429688 11.6875 Z M 16.492188 14.265625 C 17.597656 14.507812 18.617188 15.371094 19.179688 16.53125 C 19.554688 17.308594 19.699219 18.0625 19.632812 18.898438 C 19.519531 20.398438 18.953125 21.664062 18.078125 22.367188 C 17.492188 22.839844 17.066406 23.039062 15.605469 23.523438 C 14.128906 24.011719 13.664062 24.25 13.082031 24.824219 C 12.253906 25.640625 11.695312 26.710938 11.523438 27.808594 C 11.480469 28.097656 11.414062 28.714844 11.414062 28.835938 C 11.414062 28.976562 11.324219 29.066406 11.171875 29.09375 C 11.007812 29.121094 10.90625 29.070312 10.855469 28.933594 C 10.75 28.671875 10.75 27.15625 10.855469 26.304688 C 11.058594 24.632812 11.628906 23.21875 12.570312 22.046875 C 12.996094 21.523438 13.765625 20.808594 14.300781 20.449219 C 14.378906 20.398438 14.445312 20.347656 14.445312 20.335938 C 14.445312 20.328125 14.378906 20.304688 14.300781 20.289062 C 14.222656 20.269531 14.027344 20.207031 13.871094 20.152344 C 12.738281 19.75 12.050781 19.039062 11.90625 18.128906 C 11.734375 17.054688 12.339844 15.726562 13.339844 14.976562 C 13.773438 14.648438 14.644531 14.320312 15.316406 14.226562 C 15.574219 14.191406 16.25 14.214844 16.492188 14.265625 Z M 24.753906 15.644531 C 25.351562 15.691406 26.03125 15.851562 26.441406 16.042969 C 26.519531 16.078125 26.59375 16.109375 26.613281 16.113281 C 26.632812 16.121094 26.699219 16.03125 26.765625 15.921875 C 26.828125 15.808594 26.917969 15.691406 26.957031 15.660156 C 27.027344 15.609375 27.039062 15.609375 27.109375 15.648438 C 27.226562 15.714844 27.222656 15.871094 27.101562 16.132812 L 27 16.34375 L 27.253906 16.605469 C 27.664062 17.019531 27.882812 17.394531 28.035156 17.960938 C 28.097656 18.203125 28.105469 18.273438 28.105469 18.757812 C 28.109375 19.171875 28.097656 19.34375 28.0625 19.523438 C 27.917969 20.183594 27.613281 20.796875 27.15625 21.332031 C 26.835938 21.707031 26.398438 21.984375 25.921875 22.109375 C 25.695312 22.164062 25.589844 22.179688 25.257812 22.179688 C 24.707031 22.183594 24.410156 22.097656 24.222656 21.886719 C 24.007812 21.640625 24.042969 21.222656 24.316406 20.675781 C 24.398438 20.515625 24.460938 20.386719 24.457031 20.378906 C 24.453125 20.378906 24.371094 20.386719 24.273438 20.398438 C 23.441406 20.515625 22.582031 20.558594 22.191406 20.507812 C 21.503906 20.414062 20.929688 20.140625 20.601562 19.746094 C 20.316406 19.402344 20.21875 19.109375 20.222656 18.582031 C 20.222656 18.175781 20.277344 17.921875 20.4375 17.59375 C 20.863281 16.6875 21.875 15.996094 23.125 15.742188 C 23.664062 15.632812 24.207031 15.601562 24.753906 15.644531 Z M 30.105469 18.082031 C 30.152344 18.117188 30.230469 18.191406 30.285156 18.246094 C 30.339844 18.304688 30.441406 18.375 30.515625 18.402344 C 30.683594 18.464844 30.71875 18.515625 30.660156 18.613281 C 30.601562 18.710938 30.386719 18.859375 30.246094 18.898438 C 30.074219 18.945312 29.832031 18.914062 29.703125 18.828125 C 29.578125 18.742188 29.488281 18.609375 29.488281 18.5 C 29.488281 18.335938 29.792969 18.019531 29.949219 18.019531 C 29.992188 18.019531 30.0625 18.046875 30.105469 18.082031 Z M 38.8125 18.207031 C 38.902344 18.25 39.117188 18.378906 39.285156 18.492188 C 39.453125 18.609375 39.609375 18.703125 39.632812 18.703125 C 39.65625 18.703125 39.734375 18.679688 39.816406 18.648438 C 40.046875 18.5625 40.136719 18.585938 40.136719 18.734375 C 40.136719 18.898438 39.847656 19.085938 39.515625 19.136719 C 39.285156 19.171875 39.125 19.128906 38.699219 18.910156 C 38.21875 18.660156 38.078125 18.664062 37.816406 18.9375 C 37.664062 19.089844 37.578125 19.140625 37.5 19.113281 C 37.421875 19.082031 37.40625 19 37.453125 18.902344 C 37.550781 18.714844 38.003906 18.328125 38.285156 18.199219 C 38.476562 18.109375 38.609375 18.109375 38.8125 18.207031 Z M 32.496094 19.375 C 32.609375 19.480469 32.546875 19.679688 32.347656 19.84375 C 32.308594 19.878906 32.28125 19.917969 32.289062 19.933594 C 32.296875 19.941406 32.371094 20 32.453125 20.054688 C 32.691406 20.214844 32.867188 20.398438 32.902344 20.535156 C 33.003906 20.910156 32.742188 21.453125 32.292969 21.804688 C 31.945312 22.074219 31.707031 22.15625 31.304688 22.136719 C 30.847656 22.117188 30.628906 21.910156 30.675781 21.539062 C 30.710938 21.3125 30.921875 21.144531 31.160156 21.167969 C 31.324219 21.183594 31.402344 21.25 31.5 21.457031 C 31.539062 21.542969 31.59375 21.644531 31.625 21.683594 C 31.796875 21.933594 32.21875 21.5 32.21875 21.070312 C 32.21875 20.878906 32.125 20.761719 31.742188 20.503906 L 31.535156 20.367188 L 31.210938 20.605469 C 30.921875 20.820312 30.882812 20.859375 30.882812 20.929688 C 30.882812 21.027344 30.792969 21.125 30.511719 21.34375 C 30.402344 21.429688 30.226562 21.566406 30.128906 21.644531 C 29.875 21.839844 29.539062 22.023438 29.316406 22.09375 C 29.078125 22.164062 28.734375 22.15625 28.574219 22.074219 C 28.453125 22.011719 28.335938 21.855469 28.289062 21.695312 C 28.242188 21.546875 28.25 21.15625 28.296875 20.976562 C 28.328125 20.863281 28.378906 20.785156 28.550781 20.597656 C 28.667969 20.464844 28.808594 20.308594 28.859375 20.25 C 28.914062 20.1875 29.058594 20.03125 29.1875 19.898438 C 29.417969 19.664062 29.421875 19.660156 29.550781 19.660156 C 29.65625 19.660156 29.683594 19.671875 29.722656 19.726562 C 29.789062 19.824219 29.757812 19.90625 29.566406 20.113281 C 29.332031 20.378906 29.171875 20.585938 29.089844 20.753906 C 29.03125 20.867188 29.023438 20.921875 29.03125 21.042969 C 29.050781 21.3125 29.21875 21.449219 29.511719 21.441406 C 29.757812 21.441406 29.941406 21.363281 30.300781 21.125 C 30.574219 20.945312 30.59375 20.921875 30.601562 20.832031 C 30.617188 20.710938 30.621094 20.703125 30.980469 20.433594 C 31.230469 20.25 31.28125 20.195312 31.273438 20.152344 C 31.242188 20.042969 31.292969 19.964844 31.542969 19.753906 C 31.886719 19.457031 31.980469 19.386719 32.101562 19.34375 C 32.226562 19.296875 32.425781 19.3125 32.496094 19.375 Z M 35.347656 19.574219 C 35.523438 19.652344 35.589844 19.769531 35.589844 19.988281 C 35.589844 20.257812 35.449219 20.472656 35.175781 20.632812 C 34.941406 20.769531 34.246094 20.976562 33.941406 21.003906 C 33.894531 21.003906 33.859375 21.023438 33.859375 21.039062 C 33.859375 21.117188 33.976562 21.238281 34.125 21.320312 C 34.320312 21.421875 34.640625 21.476562 34.921875 21.449219 C 35.152344 21.421875 35.519531 21.296875 35.820312 21.140625 C 35.949219 21.074219 36.117188 20.984375 36.195312 20.945312 C 36.308594 20.886719 36.347656 20.847656 36.398438 20.738281 C 36.5625 20.394531 37.375 19.714844 37.613281 19.714844 C 37.695312 19.714844 37.761719 19.78125 37.761719 19.863281 C 37.761719 19.902344 37.671875 20.050781 37.539062 20.222656 C 37.304688 20.539062 37.246094 20.640625 37.144531 20.90625 C 37.078125 21.078125 37.058594 21.214844 37.097656 21.25 C 37.121094 21.277344 37.246094 21.179688 37.640625 20.832031 C 38.417969 20.148438 38.746094 19.9375 39.039062 19.933594 C 39.285156 19.929688 39.375 20.113281 39.445312 20.773438 C 39.464844 20.976562 39.496094 21.1875 39.511719 21.238281 C 39.601562 21.503906 39.75 21.464844 40.316406 21.039062 C 40.464844 20.925781 40.621094 20.824219 40.660156 20.8125 C 40.703125 20.800781 40.804688 20.710938 40.894531 20.601562 C 41.199219 20.238281 41.679688 19.933594 42.203125 19.78125 C 42.417969 19.714844 42.46875 19.707031 42.527344 19.734375 C 42.585938 19.761719 42.597656 19.785156 42.589844 19.84375 C 42.582031 19.925781 42.542969 19.949219 42.21875 20.070312 C 41.917969 20.183594 41.589844 20.402344 41.511719 20.546875 C 41.390625 20.765625 41.40625 21.035156 41.550781 21.199219 C 41.617188 21.273438 41.894531 21.398438 42.066406 21.433594 C 42.398438 21.503906 42.769531 21.359375 43.007812 21.074219 C 43.101562 20.960938 43.238281 20.726562 43.21875 20.714844 C 43.210938 20.710938 43.121094 20.695312 43.011719 20.675781 C 42.792969 20.640625 42.53125 20.550781 42.472656 20.488281 C 42.417969 20.433594 42.429688 20.398438 42.621094 19.992188 C 42.75 19.730469 42.796875 19.660156 42.839844 19.660156 C 42.871094 19.660156 42.972656 19.714844 43.070312 19.78125 C 43.539062 20.101562 43.808594 20.195312 44.152344 20.164062 C 44.535156 20.132812 44.546875 20.132812 44.554688 20.195312 C 44.574219 20.332031 44.140625 20.578125 43.710938 20.664062 C 43.507812 20.707031 43.5 20.710938 43.480469 20.796875 C 43.445312 20.996094 43.273438 21.28125 43.046875 21.503906 C 42.789062 21.765625 42.539062 21.917969 42.183594 22.039062 C 41.769531 22.175781 41.234375 22.175781 41.011719 22.039062 C 40.714844 21.851562 40.601562 21.667969 40.601562 21.375 L 40.601562 21.1875 L 40.40625 21.359375 C 40.171875 21.558594 39.664062 21.914062 39.464844 22.015625 C 39.285156 22.109375 39.132812 22.132812 39.007812 22.089844 C 38.804688 22.023438 38.710938 21.796875 38.652344 21.238281 C 38.601562 20.777344 38.574219 20.675781 38.484375 20.652344 C 38.347656 20.617188 38.21875 20.695312 37.828125 21.039062 C 36.707031 22.03125 36.5625 22.144531 36.40625 22.144531 C 36.214844 22.144531 36.160156 21.980469 36.1875 21.523438 C 36.199219 21.332031 36.191406 21.273438 36.171875 21.289062 C 36.152344 21.296875 36.054688 21.367188 35.945312 21.445312 C 35.523438 21.746094 34.988281 22.035156 34.71875 22.101562 C 34.382812 22.1875 33.867188 22.136719 33.640625 22 C 33.476562 21.898438 33.308594 21.730469 33.234375 21.585938 C 33.175781 21.46875 33.164062 21.414062 33.164062 21.230469 C 33.164062 21.03125 33.171875 20.992188 33.265625 20.8125 C 33.460938 20.429688 33.839844 20.070312 34.328125 19.804688 C 34.789062 19.554688 35.128906 19.476562 35.347656 19.574219 Z M 22.910156 22.003906 C 22.964844 22.046875 22.976562 22.085938 22.984375 22.261719 C 23.011719 22.78125 22.738281 23.339844 22.109375 24.054688 C 21.820312 24.386719 21.613281 24.667969 21.539062 24.835938 C 21.484375 24.949219 21.476562 25.015625 21.476562 25.257812 C 21.476562 25.53125 21.480469 25.554688 21.550781 25.65625 C 21.65625 25.808594 21.800781 25.882812 21.984375 25.882812 C 22.175781 25.882812 22.335938 25.804688 22.644531 25.574219 C 22.773438 25.476562 22.890625 25.394531 22.902344 25.394531 C 22.917969 25.394531 22.953125 25.34375 22.988281 25.28125 C 23.265625 24.789062 24.1875 24.234375 24.605469 24.3125 C 24.816406 24.351562 24.941406 24.589844 24.878906 24.835938 C 24.796875 25.144531 24.339844 25.402344 23.675781 25.511719 C 23.5625 25.53125 23.46875 25.558594 23.460938 25.574219 C 23.445312 25.625 23.554688 25.734375 23.6875 25.804688 C 23.796875 25.855469 23.875 25.871094 24.09375 25.878906 C 24.496094 25.894531 24.753906 25.820312 25.234375 25.550781 C 25.441406 25.4375 25.519531 25.421875 25.542969 25.5 C 25.574219 25.597656 25.496094 25.683594 25.179688 25.902344 C 24.785156 26.175781 24.398438 26.386719 24.179688 26.445312 C 23.816406 26.539062 23.378906 26.472656 23.144531 26.285156 C 23.019531 26.183594 22.890625 25.992188 22.863281 25.867188 C 22.855469 25.816406 22.84375 25.777344 22.835938 25.777344 C 22.828125 25.777344 22.753906 25.835938 22.664062 25.910156 C 22.203125 26.292969 21.886719 26.460938 21.585938 26.480469 C 21.414062 26.488281 21.375 26.484375 21.246094 26.410156 C 21.164062 26.367188 21.066406 26.289062 21.023438 26.226562 C 20.898438 26.054688 20.863281 25.765625 20.933594 25.515625 C 20.941406 25.484375 20.785156 25.621094 20.585938 25.8125 C 19.96875 26.410156 19.652344 26.566406 19.261719 26.457031 C 19.113281 26.414062 18.9375 26.230469 18.894531 26.074219 C 18.84375 25.894531 18.875 25.621094 18.964844 25.441406 C 19.0625 25.253906 19.347656 24.976562 19.628906 24.808594 C 20.269531 24.425781 21.171875 24.339844 21.082031 24.675781 L 21.0625 24.75 L 20.761719 24.765625 C 20.480469 24.777344 20.453125 24.785156 20.261719 24.886719 C 20 25.023438 19.707031 25.304688 19.660156 25.46875 C 19.617188 25.609375 19.644531 25.75 19.714844 25.796875 C 19.800781 25.847656 19.988281 25.84375 20.128906 25.78125 C 20.371094 25.675781 21.023438 25.089844 21.125 24.894531 C 21.160156 24.820312 21.257812 24.585938 21.339844 24.378906 C 21.695312 23.464844 22.417969 22.230469 22.722656 22.011719 C 22.828125 21.9375 22.832031 21.9375 22.910156 22.003906 Z M 17.054688 25.957031 C 17.203125 25.996094 17.402344 26.125 17.445312 26.210938 C 17.46875 26.257812 17.488281 26.257812 17.5625 26.238281 C 17.753906 26.183594 17.804688 26.21875 17.871094 26.453125 C 17.894531 26.539062 17.9375 26.652344 17.964844 26.707031 C 18.046875 26.855469 18.039062 26.925781 17.925781 27.011719 C 17.757812 27.144531 17.621094 27.347656 17.53125 27.589844 C 17.480469 27.71875 17.417969 27.84375 17.390625 27.867188 C 17.339844 27.910156 17.332031 27.910156 17.246094 27.871094 C 17.195312 27.84375 17.117188 27.78125 17.074219 27.726562 C 17.03125 27.671875 16.914062 27.570312 16.8125 27.507812 C 16.710938 27.4375 16.613281 27.359375 16.597656 27.328125 C 16.554688 27.246094 16.609375 27.101562 16.785156 26.859375 C 16.988281 26.578125 17.015625 26.527344 17.003906 26.4375 C 16.992188 26.3125 16.855469 26.257812 16.519531 26.246094 C 15.855469 26.21875 15.097656 26.445312 14.464844 26.859375 C 13.945312 27.203125 13.730469 27.53125 13.730469 27.992188 C 13.730469 28.371094 13.847656 28.523438 14.210938 28.644531 C 14.398438 28.707031 14.441406 28.707031 15.90625 28.726562 C 17.597656 28.75 17.800781 28.769531 18.226562 28.957031 C 18.699219 29.167969 18.867188 29.796875 18.632812 30.511719 C 18.238281 31.722656 16.605469 33.121094 15.042969 33.585938 C 14.578125 33.722656 14.191406 33.777344 13.597656 33.792969 C 12.550781 33.824219 11.941406 33.683594 11.425781 33.289062 C 11.097656 33.042969 10.953125 32.867188 10.804688 32.550781 C 10.726562 32.386719 10.71875 32.34375 10.707031 32.050781 C 10.695312 31.644531 10.746094 31.386719 10.902344 31.089844 C 11.179688 30.566406 11.671875 30.167969 12.101562 30.125 C 12.269531 30.109375 12.324219 30.148438 12.308594 30.265625 C 12.300781 30.347656 12.277344 30.363281 11.953125 30.511719 C 11.699219 30.628906 11.429688 30.882812 11.320312 31.109375 C 11.171875 31.410156 11.199219 31.84375 11.390625 32.144531 C 11.6875 32.609375 12.433594 32.976562 13.242188 33.066406 C 14.605469 33.207031 16.242188 32.691406 17.328125 31.777344 C 17.816406 31.367188 18.046875 30.972656 18.070312 30.511719 C 18.082031 30.203125 18.054688 30.097656 17.910156 29.96875 C 17.667969 29.75 17.296875 29.710938 15.449219 29.707031 C 14.257812 29.707031 14.117188 29.695312 13.757812 29.5625 C 13.359375 29.417969 13.046875 29.167969 12.925781 28.902344 C 12.886719 28.8125 12.84375 28.652344 12.824219 28.507812 C 12.75 27.90625 13.011719 27.289062 13.53125 26.863281 C 14.242188 26.28125 15.117188 25.96875 16.246094 25.902344 C 16.496094 25.886719 16.90625 25.914062 17.054688 25.957031 Z M 25.902344 27.097656 C 25.945312 27.128906 25.957031 27.175781 25.960938 27.394531 C 25.984375 28.003906 25.792969 28.53125 25.269531 29.324219 C 25.0625 29.632812 24.660156 30.125 24.304688 30.503906 C 23.980469 30.847656 23.878906 31.023438 23.925781 31.15625 C 23.984375 31.332031 24.5 31.71875 24.875 31.867188 C 25.085938 31.949219 25.324219 31.949219 25.496094 31.859375 C 25.597656 31.808594 25.640625 31.761719 25.699219 31.644531 C 25.738281 31.5625 25.78125 31.453125 25.789062 31.398438 L 25.808594 31.300781 L 25.542969 31.257812 C 25.078125 31.183594 24.796875 30.992188 24.832031 30.785156 C 24.859375 30.644531 25.011719 30.363281 25.132812 30.238281 C 25.328125 30.03125 25.402344 30.058594 25.875 30.507812 C 26.257812 30.867188 26.304688 30.894531 26.523438 30.867188 C 26.835938 30.828125 26.855469 30.832031 26.863281 30.914062 C 26.871094 30.976562 26.851562 31 26.742188 31.070312 C 26.59375 31.164062 26.40625 31.234375 26.21875 31.257812 L 26.089844 31.277344 L 26.074219 31.472656 C 26.054688 31.722656 25.925781 31.957031 25.683594 32.179688 C 25.402344 32.445312 25.082031 32.574219 24.695312 32.574219 C 24.179688 32.574219 23.664062 32.308594 23.484375 31.941406 C 23.4375 31.847656 23.398438 31.753906 23.398438 31.722656 C 23.398438 31.652344 23.371094 31.660156 23.246094 31.765625 C 23.070312 31.917969 22.644531 32.183594 22.335938 32.339844 C 21.855469 32.578125 21.554688 32.601562 21.359375 32.40625 C 21.269531 32.324219 21.257812 32.269531 21.269531 32.070312 C 21.277344 31.957031 21.351562 31.792969 21.484375 31.597656 C 21.628906 31.386719 21.683594 31.183594 21.59375 31.183594 C 21.582031 31.183594 21.476562 31.257812 21.359375 31.355469 C 20.542969 32.019531 20.171875 32.28125 19.832031 32.445312 C 19.417969 32.640625 19.117188 32.613281 18.894531 32.363281 C 18.773438 32.226562 18.746094 32.125 18.761719 31.878906 C 18.8125 31.269531 19.738281 30.484375 20.605469 30.320312 C 20.839844 30.273438 21.1875 30.269531 21.320312 30.304688 L 21.40625 30.332031 L 21.488281 30.15625 C 21.542969 30.03125 21.585938 29.972656 21.640625 29.953125 C 21.867188 29.867188 22.0625 29.996094 22.0625 30.238281 C 22.0625 30.292969 22.046875 30.421875 22.027344 30.527344 L 21.996094 30.71875 L 22.125 30.835938 C 22.300781 30.996094 22.34375 31.109375 22.363281 31.453125 L 22.375 31.742188 L 22.464844 31.75 C 22.558594 31.757812 22.746094 31.671875 23.144531 31.4375 L 23.394531 31.289062 L 23.46875 31.078125 C 23.636719 30.621094 23.980469 29.898438 24.441406 29.058594 C 24.769531 28.453125 24.964844 28.132812 25.273438 27.671875 C 25.660156 27.09375 25.765625 27 25.902344 27.097656 Z M 31.699219 29.695312 C 31.84375 29.765625 31.824219 29.964844 31.648438 30.167969 C 31.617188 30.203125 31.589844 30.242188 31.589844 30.253906 C 31.589844 30.265625 31.667969 30.320312 31.761719 30.375 C 32.15625 30.601562 32.292969 30.796875 32.210938 31 C 32.1875 31.046875 32.085938 31.167969 31.980469 31.265625 C 31.75 31.472656 31.710938 31.566406 31.816406 31.679688 C 31.980469 31.863281 32.269531 31.914062 32.5625 31.8125 C 32.714844 31.757812 33.105469 31.515625 33.3125 31.34375 C 33.523438 31.167969 33.578125 31.144531 33.652344 31.175781 C 33.710938 31.203125 33.722656 31.195312 33.832031 31.027344 C 34.175781 30.5 35.109375 29.925781 35.625 29.925781 C 35.863281 29.925781 36.054688 30.074219 36.082031 30.292969 C 36.125 30.574219 35.953125 30.871094 35.640625 31.046875 C 35.433594 31.164062 34.992188 31.308594 34.613281 31.378906 L 34.296875 31.4375 L 34.351562 31.535156 C 34.417969 31.652344 34.589844 31.761719 34.800781 31.824219 C 35.027344 31.890625 35.554688 31.871094 35.796875 31.78125 C 36.042969 31.695312 36.347656 31.554688 36.535156 31.441406 L 36.695312 31.34375 L 36.648438 31.261719 C 36.605469 31.1875 36.605469 31.183594 36.664062 31.121094 C 36.695312 31.085938 36.859375 30.960938 37.019531 30.835938 C 37.257812 30.65625 37.308594 30.609375 37.304688 30.554688 C 37.296875 30.519531 37.300781 30.464844 37.308594 30.429688 C 37.328125 30.359375 37.902344 29.859375 38.070312 29.769531 C 38.3125 29.640625 38.609375 29.714844 38.609375 29.902344 C 38.609375 30.011719 38.566406 30.085938 38.433594 30.207031 L 38.320312 30.3125 L 38.402344 30.371094 C 38.777344 30.65625 38.875 30.746094 38.933594 30.878906 C 39.011719 31.0625 39.007812 31.253906 38.917969 31.476562 C 38.726562 31.964844 38.242188 32.410156 37.777344 32.535156 C 37.59375 32.578125 37.25 32.589844 37.105469 32.546875 C 36.980469 32.511719 36.84375 32.417969 36.769531 32.324219 C 36.695312 32.226562 36.679688 31.988281 36.734375 31.863281 C 36.8125 31.667969 37.058594 31.542969 37.25 31.59375 C 37.386719 31.628906 37.441406 31.6875 37.582031 31.960938 C 37.699219 32.179688 37.738281 32.210938 37.859375 32.179688 C 38.027344 32.136719 38.230469 31.839844 38.269531 31.574219 C 38.304688 31.332031 38.210938 31.203125 37.804688 30.925781 L 37.574219 30.769531 L 37.21875 31.035156 C 36.898438 31.28125 36.867188 31.308594 36.878906 31.375 C 36.90625 31.515625 36.824219 31.597656 36.351562 31.917969 C 35.863281 32.246094 35.386719 32.496094 35.144531 32.542969 C 34.964844 32.582031 34.566406 32.582031 34.40625 32.542969 C 34.210938 32.5 34.011719 32.390625 33.875 32.253906 C 33.671875 32.054688 33.628906 31.949219 33.625 31.671875 L 33.625 31.4375 L 33.421875 31.621094 C 32.957031 32.039062 32.515625 32.34375 32.164062 32.492188 C 32.070312 32.535156 31.9375 32.5625 31.808594 32.570312 C 31.625 32.578125 31.582031 32.570312 31.4375 32.507812 C 31.253906 32.425781 31.109375 32.289062 31.019531 32.125 C 30.90625 31.90625 30.953125 31.816406 31.324219 31.53125 C 31.441406 31.4375 31.554688 31.339844 31.566406 31.3125 C 31.605469 31.238281 31.554688 31.1875 31.261719 31.007812 L 31.027344 30.863281 L 30.835938 31.035156 C 30.65625 31.203125 30.582031 31.238281 30.5 31.183594 C 30.421875 31.132812 30.460938 31.023438 30.625 30.867188 C 30.714844 30.785156 30.773438 30.71875 30.761719 30.71875 C 30.746094 30.71875 30.714844 30.734375 30.691406 30.753906 C 30.566406 30.871094 30.042969 31.074219 29.792969 31.105469 C 29.738281 31.109375 29.714844 31.144531 29.667969 31.28125 C 29.472656 31.847656 28.992188 32.28125 28.328125 32.492188 C 28.058594 32.578125 27.609375 32.597656 27.378906 32.535156 C 26.9375 32.414062 26.703125 32.058594 26.78125 31.617188 C 26.851562 31.242188 27.066406 30.9375 27.476562 30.628906 C 27.921875 30.300781 28.667969 30.027344 28.777344 30.15625 C 28.839844 30.234375 28.792969 30.328125 28.652344 30.378906 C 28.160156 30.554688 27.816406 30.753906 27.71875 30.917969 C 27.6875 30.96875 27.644531 31.078125 27.628906 31.160156 C 27.570312 31.445312 27.679688 31.625 28.015625 31.78125 C 28.144531 31.84375 28.199219 31.851562 28.4375 31.851562 C 28.757812 31.851562 28.886719 31.804688 29.09375 31.613281 C 29.222656 31.496094 29.382812 31.273438 29.417969 31.164062 C 29.433594 31.109375 29.421875 31.105469 29.265625 31.089844 C 29.078125 31.066406 28.804688 30.984375 28.707031 30.917969 C 28.667969 30.898438 28.640625 30.859375 28.640625 30.832031 C 28.640625 30.773438 28.929688 30.148438 28.988281 30.085938 C 29.042969 30.027344 29.085938 30.042969 29.339844 30.210938 C 29.828125 30.542969 30.152344 30.632812 30.554688 30.550781 C 30.691406 30.523438 30.710938 30.511719 30.785156 30.382812 C 30.929688 30.148438 31.472656 29.65625 31.597656 29.652344 C 31.609375 29.652344 31.65625 29.671875 31.699219 29.695312 Z M 26.90625 37.347656 C 26.910156 37.359375 26.890625 37.523438 26.855469 37.707031 C 26.65625 38.742188 26.375 40.207031 26.359375 40.261719 C 26.34375 40.324219 26.335938 40.328125 26.046875 40.328125 C 25.875 40.328125 25.75 40.316406 25.75 40.300781 C 25.75 40.289062 25.859375 39.695312 25.992188 38.984375 C 26.128906 38.277344 26.257812 37.621094 26.273438 37.53125 C 26.289062 37.441406 26.316406 37.359375 26.332031 37.347656 C 26.375 37.320312 26.890625 37.320312 26.90625 37.347656 Z M 32.472656 37.414062 C 32.347656 37.578125 32.164062 37.796875 32.0625 37.902344 L 31.945312 38.035156 L 31.738281 38.035156 C 31.578125 38.035156 31.535156 38.027344 31.542969 37.996094 C 31.546875 37.976562 31.628906 37.832031 31.726562 37.671875 L 31.90625 37.382812 L 32.203125 37.378906 C 32.433594 37.378906 32.492188 37.386719 32.472656 37.414062 Z M 16.703125 37.523438 C 17.09375 37.628906 17.308594 37.886719 17.3125 38.269531 C 17.3125 38.492188 17.25 38.683594 17.121094 38.855469 C 16.894531 39.15625 16.601562 39.285156 16.082031 39.316406 L 15.769531 39.332031 L 15.738281 39.496094 C 15.722656 39.585938 15.679688 39.808594 15.644531 39.992188 L 15.582031 40.328125 L 15.289062 40.328125 C 15.125 40.328125 14.988281 40.316406 14.988281 40.308594 C 14.988281 40.292969 15.09375 39.734375 15.21875 39.070312 C 15.34375 38.402344 15.457031 37.796875 15.46875 37.726562 C 15.480469 37.65625 15.507812 37.578125 15.523438 37.558594 C 15.546875 37.539062 15.640625 37.511719 15.734375 37.503906 C 15.828125 37.496094 15.941406 37.484375 15.988281 37.476562 C 16.125 37.460938 16.554688 37.488281 16.703125 37.523438 Z M 23.003906 37.769531 C 22.984375 37.859375 22.910156 38.230469 22.910156 38.238281 C 22.910156 38.246094 23.003906 38.253906 23.121094 38.257812 C 23.363281 38.265625 23.351562 38.25 23.289062 38.558594 L 23.253906 38.714844 L 22.816406 38.730469 L 22.742188 39.101562 C 22.601562 39.816406 22.605469 39.835938 22.851562 39.859375 C 22.945312 39.867188 22.992188 39.882812 22.980469 39.90625 C 22.972656 39.921875 22.960938 40.007812 22.949219 40.097656 C 22.917969 40.328125 22.90625 40.347656 22.726562 40.371094 C 22.519531 40.394531 22.332031 40.363281 22.203125 40.28125 C 21.992188 40.144531 21.980469 39.976562 22.117188 39.25 C 22.164062 38.992188 22.207031 38.773438 22.207031 38.757812 C 22.210938 38.742188 22.160156 38.730469 22.097656 38.730469 C 22.03125 38.730469 21.976562 38.71875 21.96875 38.714844 C 21.960938 38.710938 21.976562 38.605469 22.003906 38.484375 L 22.046875 38.265625 L 22.175781 38.257812 C 22.320312 38.25 22.3125 38.257812 22.363281 37.996094 L 22.394531 37.828125 L 22.644531 37.769531 C 22.984375 37.691406 23.023438 37.691406 23.003906 37.769531 Z M 19.402344 38.265625 C 19.515625 38.289062 19.617188 38.3125 19.621094 38.316406 C 19.625 38.320312 19.578125 38.59375 19.511719 38.917969 C 19.386719 39.519531 19.332031 39.910156 19.332031 40.179688 L 19.332031 40.332031 L 19.054688 40.324219 L 18.773438 40.316406 L 18.789062 39.933594 L 18.695312 40.058594 C 18.441406 40.390625 18.019531 40.476562 17.730469 40.257812 C 17.570312 40.136719 17.492188 39.96875 17.480469 39.71875 C 17.464844 39.425781 17.507812 39.226562 17.648438 38.960938 C 17.824219 38.609375 18.125 38.375 18.511719 38.269531 C 18.710938 38.21875 19.136719 38.214844 19.402344 38.265625 Z M 21.34375 38.253906 C 21.550781 38.300781 21.550781 38.300781 21.476562 38.527344 C 21.4375 38.636719 21.402344 38.730469 21.394531 38.738281 C 21.390625 38.742188 21.3125 38.730469 21.230469 38.703125 C 20.957031 38.625 20.722656 38.691406 20.722656 38.84375 C 20.722656 38.910156 20.839844 39.019531 21.007812 39.105469 C 21.410156 39.308594 21.53125 39.613281 21.347656 39.964844 C 21.210938 40.230469 20.914062 40.371094 20.492188 40.367188 C 20.25 40.363281 19.988281 40.308594 19.894531 40.238281 C 19.851562 40.207031 19.851562 40.191406 19.921875 40 L 19.996094 39.789062 L 20.148438 39.84375 C 20.324219 39.90625 20.550781 39.9375 20.652344 39.910156 C 20.691406 39.898438 20.742188 39.859375 20.769531 39.824219 C 20.839844 39.714844 20.78125 39.621094 20.570312 39.5 C 20.214844 39.292969 20.070312 39.089844 20.105469 38.851562 C 20.152344 38.558594 20.375 38.335938 20.710938 38.253906 C 20.832031 38.222656 21.195312 38.222656 21.34375 38.253906 Z M 25.109375 38.304688 C 25.460938 38.484375 25.554688 38.917969 25.304688 39.21875 C 25.152344 39.410156 24.753906 39.535156 24.308594 39.535156 C 24.136719 39.535156 24.109375 39.542969 24.109375 39.582031 C 24.109375 39.671875 24.21875 39.8125 24.316406 39.855469 C 24.453125 39.910156 24.761719 39.902344 24.960938 39.835938 C 25.050781 39.804688 25.132812 39.785156 25.140625 39.789062 C 25.144531 39.800781 25.152344 39.898438 25.15625 40.015625 L 25.160156 40.226562 L 25.03125 40.273438 C 24.964844 40.304688 24.796875 40.339844 24.667969 40.359375 C 24.015625 40.445312 23.613281 40.199219 23.539062 39.671875 C 23.453125 39.042969 23.859375 38.398438 24.429688 38.253906 C 24.605469 38.210938 24.980469 38.238281 25.109375 38.304688 Z M 28.597656 38.265625 C 28.859375 38.359375 28.996094 38.558594 28.996094 38.839844 C 28.996094 39.136719 28.871094 39.304688 28.570312 39.421875 C 28.414062 39.484375 28.089844 39.535156 27.847656 39.535156 C 27.699219 39.535156 27.6875 39.539062 27.6875 39.601562 C 27.6875 39.691406 27.785156 39.808594 27.894531 39.855469 C 28.03125 39.910156 28.332031 39.902344 28.53125 39.835938 C 28.625 39.800781 28.707031 39.78125 28.710938 39.785156 C 28.714844 39.789062 28.722656 39.894531 28.726562 40.011719 L 28.738281 40.230469 L 28.53125 40.296875 C 28.257812 40.382812 27.824219 40.394531 27.609375 40.316406 C 27.195312 40.175781 27.003906 39.726562 27.128906 39.195312 C 27.265625 38.609375 27.726562 38.226562 28.289062 38.230469 C 28.398438 38.230469 28.539062 38.246094 28.597656 38.265625 Z M 30.910156 38.273438 C 30.910156 38.300781 30.898438 38.367188 30.882812 38.417969 C 30.871094 38.46875 30.84375 38.585938 30.828125 38.667969 L 30.796875 38.828125 L 30.675781 38.828125 C 30.605469 38.828125 30.503906 38.851562 30.445312 38.878906 C 30.222656 38.992188 30.113281 39.238281 29.992188 39.910156 L 29.914062 40.328125 L 29.609375 40.328125 C 29.332031 40.328125 29.304688 40.324219 29.3125 40.28125 C 29.386719 39.953125 29.574219 38.882812 29.597656 38.664062 C 29.648438 38.207031 29.613281 38.25 29.90625 38.257812 L 30.15625 38.265625 L 30.148438 38.472656 L 30.140625 38.675781 L 30.21875 38.566406 C 30.386719 38.339844 30.570312 38.230469 30.78125 38.226562 C 30.882812 38.226562 30.910156 38.234375 30.910156 38.273438 Z M 34.292969 38.265625 C 34.402344 38.289062 34.503906 38.3125 34.511719 38.320312 C 34.523438 38.328125 34.484375 38.558594 34.429688 38.832031 C 34.304688 39.417969 34.238281 39.871094 34.238281 40.140625 L 34.238281 40.328125 L 33.660156 40.328125 L 33.675781 40.128906 C 33.695312 39.9375 33.695312 39.933594 33.644531 40 C 33.378906 40.382812 32.898438 40.492188 32.609375 40.238281 C 32.453125 40.097656 32.382812 39.921875 32.382812 39.648438 C 32.382812 39.273438 32.476562 39 32.695312 38.730469 C 32.808594 38.585938 33.066406 38.390625 33.214844 38.335938 C 33.523438 38.222656 33.949219 38.195312 34.292969 38.265625 Z M 32.015625 38.28125 C 32.027344 38.300781 31.816406 39.464844 31.671875 40.183594 L 31.644531 40.328125 L 31.34375 40.328125 C 31.132812 40.328125 31.046875 40.320312 31.046875 40.296875 C 31.046875 40.28125 31.082031 40.066406 31.128906 39.828125 C 31.171875 39.582031 31.253906 39.160156 31.308594 38.882812 C 31.359375 38.601562 31.414062 38.347656 31.425781 38.3125 C 31.453125 38.257812 31.46875 38.253906 31.726562 38.253906 C 31.875 38.253906 32.003906 38.265625 32.015625 38.28125 Z M 32.015625 38.28125 "/>
<path style=" stroke:none;fill-rule:nonzero;fill:rgb(0%,0%,0%);fill-opacity:1;" d="M 13.027344 9.847656 C 12.792969 9.910156 12.558594 10.046875 12.367188 10.238281 C 12.152344 10.453125 12.085938 10.582031 12.085938 10.789062 C 12.085938 11.148438 12.464844 11.53125 12.917969 11.632812 C 13.308594 11.71875 13.550781 11.542969 13.609375 11.136719 C 13.632812 11 13.667969 10.964844 13.773438 10.992188 C 13.855469 11.011719 13.875 11.085938 13.839844 11.261719 C 13.773438 11.617188 13.523438 11.886719 13.160156 12 C 13.066406 12.03125 12.808594 12.207031 12.585938 12.398438 C 12.125 12.792969 11.789062 13.429688 11.675781 14.117188 C 11.65625 14.230469 11.679688 14.207031 11.824219 13.945312 C 11.878906 13.847656 12.019531 13.675781 12.152344 13.539062 C 12.421875 13.265625 12.621094 13.15625 13.226562 12.957031 C 13.746094 12.785156 13.933594 12.6875 14.132812 12.492188 C 14.433594 12.195312 14.5625 11.824219 14.566406 11.261719 C 14.566406 10.867188 14.519531 10.664062 14.363281 10.429688 C 14.039062 9.9375 13.519531 9.710938 13.027344 9.847656 Z M 13.027344 9.847656 "/>
<path style=" stroke:none;fill-rule:nonzero;fill:rgb(0%,0%,0%);fill-opacity:1;" d="M 7.808594 11.917969 C 7 12.078125 6.261719 12.71875 5.949219 13.53125 C 5.792969 13.929688 5.753906 14.203125 5.769531 14.730469 C 5.808594 15.882812 6.214844 16.78125 6.90625 17.242188 C 7.210938 17.445312 7.558594 17.59375 8.339844 17.855469 C 9.394531 18.210938 9.808594 18.417969 10.207031 18.800781 C 10.628906 19.199219 10.984375 19.710938 11.210938 20.246094 C 11.316406 20.496094 11.324219 20.464844 11.261719 20.054688 C 11.070312 18.699219 10.507812 17.59375 9.582031 16.761719 C 9.164062 16.386719 8.695312 16.0625 8.464844 15.988281 C 7.707031 15.742188 7.207031 15.125 7.199219 14.421875 C 7.195312 14.226562 7.234375 14.171875 7.386719 14.171875 C 7.515625 14.171875 7.550781 14.222656 7.570312 14.421875 C 7.605469 14.816406 7.78125 15.144531 8.03125 15.289062 C 8.710938 15.675781 9.910156 15.171875 10.359375 14.308594 C 10.683594 13.683594 10.453125 13.023438 9.714844 12.476562 C 9.074219 11.996094 8.394531 11.800781 7.808594 11.917969 Z M 7.808594 11.917969 "/>
<path style=" stroke:none;fill-rule:nonzero;fill:rgb(0%,0%,0%);fill-opacity:1;" d="M 15.488281 14.5 C 14.648438 14.605469 13.65625 15.125 13.023438 15.796875 C 12.398438 16.460938 12.214844 17.136719 12.46875 17.839844 C 12.53125 18.007812 12.664062 18.273438 12.730469 18.363281 C 13.183594 18.96875 13.757812 19.375 14.46875 19.605469 C 14.695312 19.679688 14.78125 19.695312 15.097656 19.707031 C 15.503906 19.722656 15.703125 19.6875 15.960938 19.5625 C 16.355469 19.371094 16.609375 18.976562 16.722656 18.375 C 16.746094 18.253906 16.765625 18.109375 16.765625 18.058594 C 16.765625 17.984375 16.777344 17.964844 16.832031 17.949219 C 16.929688 17.925781 17.03125 17.957031 17.066406 18.023438 C 17.113281 18.109375 17.054688 18.554688 16.957031 18.839844 C 16.792969 19.328125 16.542969 19.65625 16.097656 19.960938 C 15.851562 20.125 15.726562 20.1875 15.378906 20.320312 C 15.097656 20.421875 14.820312 20.585938 14.417969 20.886719 C 13.683594 21.425781 13.113281 22 12.628906 22.675781 C 11.773438 23.871094 11.269531 25.4375 11.203125 27.089844 C 11.183594 27.570312 11.210938 27.648438 11.289062 27.335938 C 11.496094 26.480469 11.925781 25.660156 12.539062 24.941406 C 13.292969 24.0625 13.859375 23.742188 15.761719 23.125 C 17.128906 22.683594 17.746094 22.339844 18.277344 21.730469 C 18.765625 21.164062 19.113281 20.320312 19.269531 19.324219 C 19.324219 18.945312 19.335938 18.058594 19.28125 17.734375 C 19.082031 16.511719 18.320312 15.4375 17.25 14.867188 C 16.703125 14.574219 16.019531 14.433594 15.488281 14.5 Z M 15.488281 14.5 "/>
<path style=" stroke:none;fill-rule:nonzero;fill:rgb(0%,0%,0%);fill-opacity:1;" d="M 23.03125 16.355469 C 22.230469 16.410156 21.628906 16.621094 21.265625 16.984375 C 20.988281 17.261719 20.859375 17.597656 20.859375 18.046875 C 20.863281 18.386719 20.957031 18.664062 21.148438 18.890625 C 21.265625 19.027344 21.71875 19.328125 21.988281 19.453125 C 22.667969 19.761719 23.59375 19.933594 24.363281 19.886719 L 24.710938 19.871094 L 24.832031 19.648438 C 24.894531 19.527344 25.089844 19.152344 25.265625 18.8125 C 25.4375 18.472656 25.648438 18.066406 25.730469 17.902344 C 25.957031 17.472656 26.210938 16.964844 26.210938 16.949219 C 26.210938 16.921875 25.855469 16.765625 25.621094 16.6875 C 24.753906 16.394531 23.957031 16.296875 23.03125 16.355469 Z M 23.03125 16.355469 "/>
<path style=" stroke:none;fill-rule:nonzero;fill:rgb(0%,0%,0%);fill-opacity:1;" d="M 26.34375 17.644531 C 26.210938 17.902344 25.910156 18.5 25.667969 18.972656 C 25.34375 19.613281 25.25 19.824219 25.285156 19.816406 C 25.3125 19.808594 25.574219 19.765625 25.867188 19.726562 C 26.386719 19.652344 26.402344 19.648438 26.457031 19.699219 C 26.488281 19.726562 26.511719 19.785156 26.511719 19.828125 C 26.511719 19.945312 26.367188 20 25.644531 20.144531 L 25.007812 20.273438 L 24.910156 20.492188 C 24.730469 20.878906 24.769531 21.101562 25.023438 21.230469 C 25.121094 21.277344 25.1875 21.285156 25.625 21.28125 C 26.074219 21.277344 26.136719 21.273438 26.363281 21.203125 C 26.757812 21.085938 26.984375 20.933594 27.207031 20.644531 C 27.457031 20.316406 27.605469 19.964844 27.660156 19.558594 C 27.695312 19.285156 27.65625 18.828125 27.574219 18.582031 C 27.5 18.351562 27.296875 17.960938 27.144531 17.746094 C 27.027344 17.582031 26.640625 17.175781 26.601562 17.175781 C 26.589844 17.175781 26.472656 17.386719 26.34375 17.644531 Z M 26.34375 17.644531 "/>
<path style=" stroke:none;fill-rule:nonzero;fill:rgb(0%,0%,0%);fill-opacity:1;" d="M 34.574219 20.023438 C 34.410156 20.078125 34.296875 20.15625 34.125 20.335938 C 33.988281 20.476562 33.839844 20.714844 33.863281 20.742188 C 33.882812 20.757812 34.203125 20.695312 34.382812 20.640625 C 34.59375 20.574219 34.75 20.488281 34.820312 20.394531 C 34.894531 20.292969 34.910156 20.140625 34.855469 20.054688 C 34.808594 19.980469 34.746094 19.972656 34.574219 20.023438 Z M 34.574219 20.023438 "/>
<path style=" stroke:none;fill-rule:nonzero;fill:rgb(0%,0%,0%);fill-opacity:1;" d="M 23.960938 24.75 C 23.835938 24.804688 23.636719 24.996094 23.535156 25.148438 C 23.488281 25.222656 23.453125 25.292969 23.460938 25.300781 C 23.496094 25.332031 23.839844 25.246094 24.023438 25.160156 C 24.25 25.046875 24.332031 24.933594 24.285156 24.796875 C 24.261719 24.734375 24.242188 24.722656 24.152344 24.71875 C 24.089844 24.714844 24.007812 24.730469 23.960938 24.75 Z M 23.960938 24.75 "/>
<path style=" stroke:none;fill-rule:nonzero;fill:rgb(0%,0%,0%);fill-opacity:1;" d="M 20.765625 30.59375 C 20.289062 30.710938 19.796875 31.171875 19.796875 31.5 C 19.796875 31.675781 19.90625 31.789062 20.074219 31.789062 C 20.414062 31.789062 21.34375 31.144531 21.394531 30.871094 C 21.417969 30.742188 21.367188 30.59375 21.289062 30.570312 C 21.191406 30.546875 20.914062 30.554688 20.765625 30.59375 Z M 20.765625 30.59375 "/>
<path style=" stroke:none;fill-rule:nonzero;fill:rgb(0%,0%,0%);fill-opacity:1;" d="M 35.027344 30.429688 C 34.875 30.484375 34.75 30.566406 34.601562 30.722656 C 34.460938 30.875 34.300781 31.117188 34.328125 31.144531 C 34.339844 31.15625 34.457031 31.140625 34.585938 31.117188 C 34.890625 31.0625 35.242188 30.894531 35.3125 30.773438 C 35.371094 30.675781 35.382812 30.492188 35.332031 30.429688 C 35.292969 30.382812 35.164062 30.378906 35.027344 30.429688 Z M 35.027344 30.429688 "/>
<path style=" stroke:none;fill-rule:nonzero;fill:rgb(0%,0%,0%);fill-opacity:1;" d="M 16.058594 37.976562 C 16.007812 38.011719 15.859375 38.78125 15.902344 38.804688 C 15.949219 38.835938 16.191406 38.828125 16.3125 38.796875 C 16.375 38.78125 16.464844 38.738281 16.515625 38.703125 C 16.742188 38.527344 16.765625 38.148438 16.550781 38.027344 C 16.449219 37.96875 16.121094 37.933594 16.058594 37.976562 Z M 16.058594 37.976562 "/>
<path style=" stroke:none;fill-rule:nonzero;fill:rgb(0%,0%,0%);fill-opacity:1;" d="M 18.582031 38.734375 C 18.40625 38.824219 18.320312 38.914062 18.222656 39.117188 C 18.136719 39.289062 18.121094 39.347656 18.121094 39.507812 C 18.117188 39.71875 18.15625 39.816406 18.265625 39.863281 C 18.492188 39.957031 18.710938 39.699219 18.839844 39.191406 C 18.871094 39.074219 18.902344 38.914062 18.914062 38.835938 L 18.929688 38.691406 L 18.796875 38.691406 C 18.722656 38.691406 18.628906 38.710938 18.582031 38.734375 Z M 18.582031 38.734375 "/>
<path style=" stroke:none;fill-rule:nonzero;fill:rgb(0%,0%,0%);fill-opacity:1;" d="M 24.476562 38.703125 C 24.359375 38.753906 24.277344 38.835938 24.222656 38.953125 C 24.144531 39.105469 24.15625 39.109375 24.59375 39.054688 C 24.726562 39.039062 24.875 38.929688 24.875 38.851562 C 24.875 38.820312 24.84375 38.765625 24.804688 38.730469 C 24.730469 38.65625 24.609375 38.644531 24.476562 38.703125 Z M 24.476562 38.703125 "/>
<path style=" stroke:none;fill-rule:nonzero;fill:rgb(0%,0%,0%);fill-opacity:1;" d="M 28.042969 38.703125 C 27.988281 38.730469 27.925781 38.769531 27.898438 38.792969 C 27.84375 38.839844 27.742188 39.023438 27.742188 39.066406 C 27.742188 39.082031 27.796875 39.089844 27.871094 39.082031 C 28.296875 39.054688 28.425781 39 28.425781 38.84375 C 28.425781 38.792969 28.40625 38.738281 28.382812 38.71875 C 28.320312 38.664062 28.144531 38.65625 28.042969 38.703125 Z M 28.042969 38.703125 "/>
<path style=" stroke:none;fill-rule:nonzero;fill:rgb(0%,0%,0%);fill-opacity:1;" d="M 33.40625 38.777344 C 33.101562 38.980469 32.921875 39.46875 33.054688 39.742188 C 33.171875 39.988281 33.476562 39.882812 33.632812 39.535156 C 33.691406 39.40625 33.832031 38.839844 33.832031 38.730469 C 33.832031 38.703125 33.792969 38.691406 33.683594 38.691406 C 33.5625 38.691406 33.511719 38.707031 33.40625 38.777344 Z M 33.40625 38.777344 "/>
</g>
</svg>
