<?xml version="1.0" encoding="UTF-8"?>
<svg xmlns="http://www.w3.org/2000/svg" xmlns:xlink="http://www.w3.org/1999/xlink" width="25px" height="29px" viewBox="0 0 25 28" version="1.1">
<g id="surface1">
<path style=" stroke:none;fill-rule:nonzero;fill:rgb(0%,0%,0%);fill-opacity:1;" d="M 0 5.25 C 0 4.28125 0.796875 3.5 1.785156 3.5 L 23.214844 3.5 C 24.203125 3.5 25 4.28125 25 5.25 C 25 6.21875 24.203125 7 23.214844 7 L 1.785156 7 C 0.796875 7 0 6.21875 0 5.25 Z M 0 14 C 0 13.03125 0.796875 12.25 1.785156 12.25 L 23.214844 12.25 C 24.203125 12.25 25 13.03125 25 14 C 25 14.96875 24.203125 15.75 23.214844 15.75 L 1.785156 15.75 C 0.796875 15.75 0 14.96875 0 14 Z M 25 22.75 C 25 23.71875 24.203125 24.5 23.214844 24.5 L 1.785156 24.5 C 0.796875 24.5 0 23.71875 0 22.75 C 0 21.78125 0.796875 21 1.785156 21 L 23.214844 21 C 24.203125 21 25 21.78125 25 22.75 Z M 25 22.75 "/>
</g>
</svg>
