<?xml version="1.0" encoding="UTF-8" standalone="no" ?>
<!DOCTYPE svg PUBLIC "-//W3C//DTD SVG 1.1//EN" "http://www.w3.org/Graphics/SVG/1.1/DTD/svg11.dtd">
<svg xmlns="http://www.w3.org/2000/svg" xmlns:xlink="http://www.w3.org/1999/xlink" version="1.1" width="25" height="29" viewBox="0 0 25 29" xml:space="preserve">
<desc>Created with Fabric.js 5.3.0</desc>
<defs>
</defs>
<g transform="matrix(1 0 0 1 12.5 14.5)" id="sff6357XRggTW27hf2VfV"  >
<path style="stroke: none; stroke-width: 1; stroke-dasharray: none; stroke-linecap: butt; stroke-dashoffset: 0; stroke-linejoin: miter; stroke-miterlimit: 4; fill: rgb(205,17,16); fill-rule: nonzero; opacity: 1;"  transform=" translate(-12.5, -14)" d="M 14.285156 4.375 C 14.285156 3.40625 13.488281 2.625 12.5 2.625 C 11.511719 2.625 10.714844 3.40625 10.714844 4.375 L 10.714844 12.25 L 2.679688 12.25 C 1.691406 12.25 0.894531 13.03125 0.894531 14 C 0.894531 14.96875 1.691406 15.75 2.679688 15.75 L 10.714844 15.75 L 10.714844 23.625 C 10.714844 24.59375 11.511719 25.375 12.5 25.375 C 13.488281 25.375 14.285156 24.59375 14.285156 23.625 L 14.285156 15.75 L 22.320312 15.75 C 23.308594 15.75 24.105469 14.96875 24.105469 14 C 24.105469 13.03125 23.308594 12.25 22.320312 12.25 L 14.285156 12.25 Z M 14.285156 4.375" stroke-linecap="round" />
</g>
</svg>