<?xml version="1.0" encoding="UTF-8"?>
<svg xmlns="http://www.w3.org/2000/svg" xmlns:xlink="http://www.w3.org/1999/xlink" width="24px" height="24px" viewBox="0 0 24 24" version="1.1">
<g id="surface1">
<path style=" stroke:none;fill-rule:nonzero;fill:rgb(0%,0%,0%);fill-opacity:1;" d="M 5.507812 12.589844 C 5.507812 12.585938 5.507812 12.578125 5.503906 12.574219 L 4.285156 5.253906 C 4.164062 4.53125 3.539062 4 2.804688 4 L 2.5 4 C 2.222656 4 2 3.777344 2 3.5 C 2 3.222656 2.222656 3 2.5 3 L 2.804688 3 C 3.996094 3 5.019531 3.839844 5.253906 5 L 21.5 5 C 21.832031 5 22.070312 5.316406 21.980469 5.636719 L 19.980469 12.636719 C 19.917969 12.851562 19.722656 13 19.5 13 L 6.589844 13 L 6.714844 13.746094 C 6.835938 14.46875 7.460938 15 8.195312 15 L 19.5 15 C 19.777344 15 20 15.222656 20 15.5 C 20 15.777344 19.777344 16 19.5 16 L 8.195312 16 C 6.972656 16 5.929688 15.117188 5.726562 13.910156 Z M 5.421875 6 L 6.421875 12 L 19.121094 12 L 20.835938 6 Z M 8 21 C 6.894531 21 6 20.105469 6 19 C 6 17.894531 6.894531 17 8 17 C 9.105469 17 10 17.894531 10 19 C 10 20.105469 9.105469 21 8 21 Z M 8 20 C 8.550781 20 9 19.550781 9 19 C 9 18.449219 8.550781 18 8 18 C 7.449219 18 7 18.449219 7 19 C 7 19.550781 7.449219 20 8 20 Z M 17 21 C 15.894531 21 15 20.105469 15 19 C 15 17.894531 15.894531 17 17 17 C 18.105469 17 19 17.894531 19 19 C 19 20.105469 18.105469 21 17 21 Z M 17 20 C 17.550781 20 18 19.550781 18 19 C 18 18.449219 17.550781 18 17 18 C 16.449219 18 16 18.449219 16 19 C 16 19.550781 16.449219 20 17 20 Z M 17 20 "/>
</g>
</svg>
