<?xml version="1.0" encoding="UTF-8"?>
<svg xmlns="http://www.w3.org/2000/svg" xmlns:xlink="http://www.w3.org/1999/xlink" width="20px" height="23px" viewBox="0 0 20 22" version="1.1">
<g id="surface1">
<path style=" stroke:none;fill-rule:nonzero;fill:rgb(0%,0%,0%);fill-opacity:1;" d="M 6.035156 0.761719 C 6.277344 0.292969 6.773438 0 7.3125 0 L 12.6875 0 C 13.226562 0 13.722656 0.292969 13.964844 0.761719 L 14.285156 1.375 L 18.570312 1.375 C 19.363281 1.375 20 1.988281 20 2.75 C 20 3.511719 19.363281 4.125 18.570312 4.125 L 1.429688 4.125 C 0.636719 4.125 0 3.511719 0 2.75 C 0 1.988281 0.636719 1.375 1.429688 1.375 L 5.714844 1.375 Z M 1.429688 5.5 L 18.570312 5.5 L 18.570312 19.25 C 18.570312 20.765625 17.289062 22 15.714844 22 L 4.285156 22 C 2.710938 22 1.429688 20.765625 1.429688 19.25 Z M 5.714844 8.25 C 5.320312 8.25 5 8.558594 5 8.9375 L 5 18.5625 C 5 18.941406 5.320312 19.25 5.714844 19.25 C 6.105469 19.25 6.429688 18.941406 6.429688 18.5625 L 6.429688 8.9375 C 6.429688 8.558594 6.105469 8.25 5.714844 8.25 Z M 10 8.25 C 9.605469 8.25 9.285156 8.558594 9.285156 8.9375 L 9.285156 18.5625 C 9.285156 18.941406 9.605469 19.25 10 19.25 C 10.394531 19.25 10.714844 18.941406 10.714844 18.5625 L 10.714844 8.9375 C 10.714844 8.558594 10.394531 8.25 10 8.25 Z M 14.285156 8.25 C 13.894531 8.25 13.570312 8.558594 13.570312 8.9375 L 13.570312 18.5625 C 13.570312 18.941406 13.894531 19.25 14.285156 19.25 C 14.679688 19.25 15 18.941406 15 18.5625 L 15 8.9375 C 15 8.558594 14.679688 8.25 14.285156 8.25 Z M 14.285156 8.25 "/>
</g>
</svg>
